<?xml version="1.0" encoding="UTF-8" standalone="no"?>
<!DOCTYPE svg PUBLIC "-//W3C//DTD SVG 1.1//EN" "http://www.w3.org/Graphics/SVG/1.1/DTD/svg11.dtd">
<svg width="100%" height="100%" viewBox="0 0 20 20" version="1.1" xmlns="http://www.w3.org/2000/svg" xmlns:xlink="http://www.w3.org/1999/xlink" xml:space="preserve" xmlns:serif="http://www.serif.com/" style="fill-rule:evenodd;clip-rule:evenodd;stroke-linejoin:round;stroke-miterlimit:2;">
    <g transform="matrix(1,0,0,1,-10,-10)">
        <g>
            <g>
                <circle cx="19.96" cy="19.96" r="9.96" style="fill:rgb(226,46,38);"/>
            </g>
        </g>
        <g>
            <g>
                <path d="M25.14,19.76C25.14,19.74 25.34,18.98 24.68,18.72C24.28,18.56 24.02,18.68 23.82,18.76C23.68,18.82 23.56,18.88 23.44,18.84C21.48,18.26 20.32,18.26 20.32,18.26C19.18,18.18 17.52,18.7 17.52,18.7C17.54,18.64 17.54,18.6 17.54,18.54C17.54,18.32 17.44,18.12 17.34,18C17.38,18 17.42,18.02 17.48,18.02C18.28,18.08 20.38,17.34 21.12,16.18C20.38,15.82 18.84,16.42 18.08,16.76C18.58,16.42 19.08,16.06 19.08,15.88C19.08,15.84 19.06,15.82 19.04,15.8C18.78,15.66 18.02,15.86 17.38,16.22C16.72,16.62 16.14,17.2 16.04,17.3C15.98,17.32 15.68,17.4 15.34,17.56C14.84,17.8 14.14,18.24 13.8,18.98C13.76,19.06 13.74,19.14 13.74,19.22C13.74,19.3 13.76,19.36 13.8,19.42C14.08,19.88 15.3,19.92 15.56,19.94C14.56,20.78 13.44,21.9 12.96,22.92C12.96,22.92 12.88,23.2 13,23.3C13.08,23.38 13.24,23.36 13.46,23.28C13.58,23.24 13.94,23.02 14.4,22.76C15.22,22.28 16.34,21.64 16.7,21.56C17.22,21.42 17.88,21.46 18.66,21.5C19.92,21.58 21.36,21.66 22.66,21L22.68,21L22.68,21.02C22.68,21.02 22.64,21.16 22.76,21.34C22.96,21.64 23.62,22.04 25.52,22.18C25.52,22.18 26.2,22.2 27.22,23.36C27.22,23.36 27.7,23.34 27.82,23C27.92,22.52 27.56,21.66 25.14,19.76Z" style="fill:white;fill-rule:nonzero;"/>
            </g>
        </g>
    </g>
</svg>
